<?xml version="1.0" encoding="iso-8859-1"?>
<!-- Generator: Adobe Illustrator 18.0.0, SVG Export Plug-In . SVG Version: 6.00 Build 0)  -->
<!DOCTYPE svg PUBLIC "-//W3C//DTD SVG 1.1//EN" "http://www.w3.org/Graphics/SVG/1.1/DTD/svg11.dtd">
<svg version="1.1" id="Capa_1" xmlns="http://www.w3.org/2000/svg" xmlns:xlink="http://www.w3.org/1999/xlink" x="0px" y="0px"
	 viewBox="0 0 325.201 325.201" style="enable-background:new 0 0 325.201 325.201;fill:firebrick;" xml:space="preserve">
<g>
	<path d="M295.419,193.913c-2.746-6.534-7.73-11.639-14.037-14.381c-1.131-0.492-1.805-1.689-1.641-2.913
		c0.363-2.659,0.305-5.354-0.166-8.006c-2.357-13.256-14.395-22.24-26.828-20.028c-12.434,2.212-20.633,14.796-18.275,28.05
		c0.598,3.375,1.824,6.524,3.635,9.359c0.428,0.666,0.547,1.483,0.336,2.241c-0.213,0.761-0.74,1.395-1.451,1.739l-18.206,9.073
		c-0.644,5.607-1.874,11.185-4.628,16.499c-12.183,23.525-44.301,24.717-50.619,24.717c0,0-0.001,0-0.001,0
		c-0.456,0-0.773-0.006-0.936-0.01c-0.163,0.004-0.481,0.01-0.938,0.01c-6.315,0-38.436-1.192-50.62-24.717
		c-2.752-5.314-3.983-10.892-4.627-16.498l-18.209-9.074c-0.709-0.344-1.238-0.979-1.451-1.739c-0.213-0.758-0.09-1.575,0.336-2.241
		c1.811-2.835,3.037-5.985,3.637-9.359c2.355-13.254-5.842-25.839-18.277-28.05c-12.434-2.211-24.471,6.772-26.826,20.028
		c-0.473,2.652-0.529,5.347-0.166,8.006c0.164,1.224-0.51,2.421-1.643,2.913c-6.305,2.742-11.291,7.848-14.035,14.381
		c-2.695,6.409-2.9,13.432-0.574,19.777c2.357,6.421,7.008,11.368,13.096,13.929c1.59,0.67,3.254,1.162,4.943,1.461
		c11.189,1.991,22.844-4.598,27.713-15.667c0.299-0.687,0.879-1.228,1.582-1.486c0.697-0.256,1.494-0.216,2.166,0.112l57.003,28.407
		l-43.88,21.867c-0.68,0.331-1.494,0.369-2.203,0.097c-0.713-0.274-1.287-0.837-1.578-1.546l-0.158-0.401
		c-4.773-11.352-16.508-18.12-27.9-16.092c-1.688,0.301-3.352,0.792-4.947,1.462c-6.029,2.537-10.66,7.419-13.033,13.749
		c-2.395,6.388-2.211,13.475,0.512,19.957c2.748,6.531,7.734,11.639,14.039,14.382c1.131,0.492,1.805,1.688,1.639,2.912
		c-0.361,2.659-0.307,5.354,0.166,8.007c2.359,13.255,14.394,22.238,26.832,20.028c12.432-2.214,20.631-14.797,18.275-28.052
		c-0.547-3.053-1.615-5.948-3.187-8.603c-0.393-0.662-0.49-1.465-0.268-2.203c0.219-0.739,0.746-1.357,1.439-1.694l61.142-30.47
		l61.143,30.47c0.693,0.337,1.221,0.955,1.438,1.694c0.223,0.738,0.125,1.541-0.266,2.203c-1.572,2.655-2.643,5.549-3.188,8.603
		c-2.355,13.255,5.844,25.838,18.275,28.052c12.438,2.211,24.471-6.773,26.83-20.028c0.475-2.653,0.529-5.348,0.166-8.007
		c-0.164-1.224,0.51-2.42,1.641-2.912c6.305-2.743,11.289-7.851,14.037-14.382c2.725-6.482,2.906-13.569,0.512-19.957
		c-2.373-6.33-7.002-11.213-13.033-13.749c-1.596-0.67-3.26-1.161-4.945-1.462c-11.395-2.028-23.129,4.74-27.902,16.092
		l-0.158,0.401c-0.289,0.71-0.865,1.272-1.578,1.546c-0.709,0.272-1.523,0.234-2.203-0.097l-43.88-21.867l57.003-28.407
		c0.672-0.328,1.469-0.368,2.168-0.112c0.701,0.259,1.281,0.799,1.582,1.486c4.867,11.07,16.521,17.658,27.713,15.667
		c1.689-0.299,3.352-0.791,4.943-1.461c6.088-2.561,10.736-7.508,13.094-13.929C298.319,207.345,298.114,200.321,295.419,193.913z"
		/>
	<path d="M104.95,157.634l0.302,0.278l0.23,0.34c6.258,9.241,6.766,19.738,7.257,29.89c0.419,8.671,0.815,16.86,4.59,24.149
		c10.299,19.887,38.738,20.894,44.334,20.894c0.499,0,0.783-0.008,0.815-0.01l0.122-0.004l0.126,0.004
		c0.028,0.001,0.313,0.009,0.812,0.009c5.596,0,34.035-1.007,44.335-20.894c3.775-7.289,4.171-15.479,4.591-24.15
		c0.491-10.152,0.999-20.649,7.255-29.89l0.23-0.34l0.302-0.278c8.012-7.383,15.223-15.658,21.435-24.599
		c10.082-19.162,14.184-46.788,10.207-68.825C243.88,19.803,216.341,0,162.601,0c-53.74,0-81.279,19.803-89.294,64.21
		c-3.976,22.034,0.126,49.661,10.207,68.825C89.729,141.977,96.941,150.253,104.95,157.634z M173.29,105.657
		c4.688-11.034,19.861-15.146,33.893-9.187c14.035,5.96,21.609,19.736,16.922,30.77c-4.686,11.034-19.859,15.147-33.891,9.188
		C176.181,130.466,168.603,116.69,173.29,105.657z M181.71,172.601c0,12.624-8.553,12.27-19.109,12.27
		c-10.557,0-19.109,0.354-19.109-12.27c0-12.621,19.109-33.44,19.109-33.44S181.71,159.98,181.71,172.601z M118.017,96.47
		c14.033-5.96,29.205-1.848,33.891,9.187c4.689,11.034-2.889,24.81-16.92,30.771c-14.031,5.96-29.207,1.847-33.893-9.188
		C96.407,116.207,103.984,102.43,118.017,96.47z"/>
</g>
<g>
</g>
<g>
</g>
<g>
</g>
<g>
</g>
<g>
</g>
<g>
</g>
<g>
</g>
<g>
</g>
<g>
</g>
<g>
</g>
<g>
</g>
<g>
</g>
<g>
</g>
<g>
</g>
<g>
</g>
</svg>
