<?xml version="1.0" encoding="iso-8859-1"?>
<!-- Generator: Adobe Illustrator 19.0.0, SVG Export Plug-In . SVG Version: 6.00 Build 0)  -->
<svg version="1.1" id="Capa_1" xmlns="http://www.w3.org/2000/svg" xmlns:xlink="http://www.w3.org/1999/xlink" x="0px" y="0px"
	 viewBox="0 0 512 512" style="enable-background:new 0 0 512 512;" xml:space="preserve">
<path style="fill:#CCDFED;" d="M388.267,8.335l-13.439,8.352c-0.57,0.354-1.072,0.81-1.479,1.344L332.151,72.04l6.936,11.161
	l73.742-45.825l-16.941-27.262C394.274,7.518,390.863,6.722,388.267,8.335z"/>
<path style="fill:#9EBECC;" d="M412.524,86.505l17.713-11.007c2.502-1.555,3.27-4.844,1.715-7.346l-26.066-41.945l-147.483,91.65
	l39.453,63.488l108.227-67.255c4.698-2.919,6.14-9.094,3.22-13.792l0,0C406.385,95.599,407.827,89.424,412.524,86.505z"/>
<path style="fill:#8CAEBA;" d="M423.902,55.196l-147.483,91.65l21.438,34.498l108.227-67.255c4.698-2.919,6.14-9.094,3.22-13.792
	c-2.919-4.698-1.477-10.873,3.22-13.792l17.713-11.007c2.502-1.555,3.27-4.844,1.715-7.346L423.902,55.196z"/>
<path style="fill:#9EBECC;" d="M81.294,248.234l8.884-5.52c3.547-2.204,7.824-2.909,11.891-1.96l6.681,1.56
	c4.142,0.967,8.499,0.249,12.112-1.996l29.602-18.395l25.569,41.145l-38.971,14.345l-55.049-21.426
	C78.67,254.686,78.248,250.127,81.294,248.234z"/>
<path style="fill:#CCDFED;" d="M267.091,112.457l-128.654,79.949c-4.795,2.98-6.605,9.041-4.298,14.194
	c14.51,32.397,3.208,71.338-27.781,90.596l-0.058,0.036c-5.532,3.431-7.253,10.681-3.848,16.229
	c1.198,1.952,2.486,4.063,3.945,6.282c8.067,12.266,12.065,26.761,11.12,41.412l-3.063,47.48
	c-0.929,14.406,1.365,28.838,6.717,42.245L138.382,494c3.849,9.642,15.477,13.464,24.295,7.984l57.189-35.539
	c13.249-8.233,17.214-25.707,8.816-38.853l-6.419-10.048c-8.316-13.017-13.83-27.623-16.19-42.888l-3.814-24.667
	c6.079,5.039,13.428,8.475,21.367,9.838c11.04,1.895,22.344-0.361,31.758-6.211c1.522-0.946,2.995-1.986,4.409-3.117l38.286-30.633
	c18.015-14.414,22.41-40.02,10.233-59.616l-8.656-13.93l17.789-11.054c10.344-6.428,13.519-20.025,7.091-30.369L267.091,112.457z
	 M289.613,271.101c6.617,10.648,4.225,24.583-5.564,32.415l-36.763,29.414c-5.522,4.418-12.692,6.269-19.665,5.072
	s-13.114-5.33-16.848-11.339l0,0c-6.217-10.004-3.147-23.154,6.858-29.371l50.295-31.254
	C275.312,261.447,285.022,263.714,289.613,271.101L289.613,271.101z"/>
<path style="fill:#BFD4E0;" d="M324.534,204.896l-57.444-92.439l-34.18,21.24l44.244,71.198c6.428,10.344,3.254,23.941-7.091,30.369
	l-17.789,11.054c0,0-79.495,48.748-83.563,52.04c-0.822,0.616-1.582,1.286-2.291,1.996c-8.242,7.717-17.864,22.932-11.542,49.634
	l3.814,24.666c10.177,55.995,34.652,86.437,48.461,99.689l12.711-7.899c13.249-8.233,17.214-25.707,8.816-38.853l-6.419-10.048
	c-8.316-13.017-13.829-27.623-16.19-42.888l-3.814-24.667c6.079,5.039,13.428,8.475,21.367,9.838
	c11.04,1.895,22.344-0.361,31.759-6.211c1.522-0.946,2.995-1.986,4.409-3.117l38.286-30.633
	c18.015-14.414,22.41-40.02,10.233-59.616l-8.657-13.93l17.789-11.054C327.788,228.837,330.962,215.24,324.534,204.896z
	 M284.049,303.516l-36.763,29.414c-5.522,4.418-12.692,6.269-19.665,5.072c-6.973-1.197-13.114-5.33-16.848-11.339
	c-6.217-10.004-3.147-23.154,6.858-29.371l50.295-31.254c7.387-4.591,17.097-2.323,21.687,5.064
	C296.229,281.749,293.838,295.684,284.049,303.516z"/>
<path style="fill:#BF6325;" d="M128.612,309.298l-27.834-3.208c-0.254,2.488,0.264,5.075,1.674,7.371
	c1.255,2.046,2.609,4.266,4.155,6.601c8.031,12.13,11.846,26.574,10.909,41.092l-3.063,47.48
	c-0.929,14.406,1.365,28.838,6.717,42.245l17.211,43.12c3.849,9.643,15.477,13.464,24.295,7.984l57.189-35.539
	c13.249-8.233,17.214-25.707,8.816-38.853l-6.419-10.048c-8.316-13.017-13.83-27.623-16.19-42.888l-3.814-24.667l-20.034-4.674
	c-10.206-2.381-19.048-8.72-24.58-17.622l0,0C151.281,317.453,140.589,310.678,128.612,309.298z"/>
<path style="fill:#9E5015;" d="M228.681,427.592l-6.419-10.048c-3.75-5.87-6.924-12.065-9.503-18.496
	c-0.757-1.888-1.46-3.797-2.112-5.724c-0.736-2.173-1.405-4.37-2.005-6.586c-0.321-1.185-0.63-2.374-0.911-3.57
	c-0.662-2.81-1.215-5.649-1.658-8.511l-1.907-12.334l-1.907-12.334l-20.034-4.674c-10.206-2.381-19.048-8.72-24.58-17.622l0,0
	c-1.105-1.778-2.348-3.444-3.698-5.003c-1.57,7.356-1.657,16.363,0.932,27.299l3.814,24.666
	c10.177,55.995,34.652,86.437,48.461,99.689l12.711-7.899c1.165-0.724,2.255-1.523,3.274-2.381c0.43-0.362,0.851-0.731,1.255-1.114
	c3.739-3.551,6.336-7.994,7.666-12.776c0.141-0.508,0.264-1.02,0.376-1.535c0.263-1.203,0.448-2.423,0.551-3.652
	c0.08-0.947,0.114-1.9,0.097-2.854c-0.008-0.454-0.028-0.908-0.058-1.362C232.722,436.231,231.305,431.7,228.681,427.592z"/>
<path style="fill:#9EBECC;" d="M299.437,217.11l-87.462,54.351c-2.143,1.332-4.96,0.674-6.292-1.469l-37.049-59.62
	c-1.332-2.143-0.674-4.96,1.469-6.292l87.462-54.351c2.143-1.332,4.96-0.674,6.292,1.469l37.049,59.62
	C302.238,212.961,301.58,215.778,299.437,217.11z"/>
<g>
	<path style="fill:#8CAEBA;" d="M257.565,149.729l-48.999,30.449c-5.542,3.444-7.243,10.729-3.799,16.271
		c3.444,5.542,10.729,7.243,16.271,3.799l52.879-32.86l-10.06-16.189C262.525,149.055,259.708,148.397,257.565,149.729z"/>
	<path style="fill:#8CAEBA;" d="M234.168,243.76L234.168,243.76c3.444,5.542,10.729,7.243,16.271,3.799l48.999-30.449
		c2.143-1.332,2.801-4.149,1.469-6.292l-10.06-16.189l-52.879,32.86C232.425,230.933,230.724,238.218,234.168,243.76z"/>
</g>
<path d="M263.967,259.669l-50.293,31.255c-13.5,8.388-17.658,26.196-9.269,39.696c4.864,7.828,12.864,13.212,21.948,14.771
	c1.813,0.311,3.635,0.464,5.449,0.464c7.275,0,14.407-2.462,20.168-7.071l36.763-29.414c12.751-10.202,15.867-28.355,7.247-42.225
	c-3.276-5.274-8.411-8.956-14.458-10.368C275.477,255.365,269.243,256.393,263.967,259.669z M283.245,275.058L283.245,275.058
	c4.614,7.426,2.946,17.143-3.879,22.604l-36.763,29.414c-3.852,3.082-8.847,4.372-13.713,3.537
	c-4.862-0.835-9.145-3.716-11.749-7.906c-2.469-3.974-2.664-8.721-0.957-12.73l4.263,2.304c4.784,2.586,10.08,3.873,15.37,3.873
	c5.834,0,11.661-1.565,16.787-4.677l3.037-1.844c3.54-2.149,4.667-6.76,2.519-10.299c-2.149-3.541-6.761-4.667-10.299-2.519
	l-3.037,1.844c-5.001,3.035-11.241,3.319-16.488,0.808l43.546-27.062c1.325-0.822,2.818-1.246,4.339-1.246
	c0.63,0,1.264,0.073,1.892,0.219C280.259,271.88,282.081,273.187,283.245,275.058z"/>
<path d="M438.32,64.194l-26.066-41.945l-9.999-16.092c-1.837-2.956-4.715-5.02-8.105-5.811c-3.389-0.792-6.884-0.214-9.84,1.622
	l-13.439,8.352c-1.35,0.839-2.522,1.904-3.482,3.164l-40.345,52.891l-63.902,39.71c-0.003,0.002-0.006,0.003-0.009,0.005
	l-128.654,79.948c-7.922,4.923-11.01,15.08-7.182,23.626c2.183,4.873,3.691,9.902,4.589,14.977l-14.98,9.309
	c-1.938,1.204-4.228,1.582-6.451,1.063l-6.681-1.56c-6.043-1.409-12.278-0.384-17.553,2.893l-8.884,5.52
	c-3.837,2.384-5.962,6.66-5.545,11.159c0.418,4.498,3.292,8.311,7.501,9.949l38.158,14.852c-4.24,4.999-9.291,9.423-15.102,13.035
	c-5.159,3.2-8.277,8.47-8.97,14.085c-0.02,0.127-0.045,0.253-0.058,0.381c-0.029,0.278-0.035,0.555-0.052,0.832
	c-0.01,0.16-0.024,0.319-0.03,0.479c-0.02,0.55-0.018,1.098,0.009,1.642c0.001,0.029,0,0.058,0.002,0.087
	c0.033,0.618,0.096,1.23,0.188,1.838c0.003,0.017,0.007,0.034,0.009,0.051c0.086,0.563,0.202,1.119,0.338,1.671
	c0.031,0.128,0.069,0.255,0.103,0.382c0.119,0.443,0.254,0.882,0.405,1.317c0.056,0.161,0.113,0.32,0.174,0.48
	c0.157,0.413,0.33,0.82,0.515,1.224c0.07,0.153,0.135,0.308,0.21,0.46c0.266,0.54,0.551,1.073,0.87,1.592l0.14,0.228l0.155,0.252
	c0.043,0.07,0.09,0.147,0.134,0.218c0.4,0.652,0.821,1.335,1.257,2.036c0.136,0.219,0.267,0.432,0.407,0.655
	c0.119,0.191,0.245,0.387,0.367,0.581c0.217,0.344,0.433,0.687,0.658,1.039c0.126,0.197,0.258,0.397,0.386,0.596
	c0.188,0.291,0.373,0.58,0.567,0.875c7.209,10.964,10.727,24.036,9.903,36.81l-3.062,47.48c-0.995,15.421,1.507,31.157,7.235,45.507
	l17.211,43.12c2.658,6.662,8.092,11.767,14.906,14.007c2.474,0.813,5.025,1.214,7.562,1.214c3.34,0,6.658-0.695,9.745-2.06
	c1.029-0.455,2.033-0.984,3.003-1.587l57.187-35.538c8.124-5.048,13.765-12.965,15.881-22.292
	c2.116-9.328,0.446-18.904-4.703-26.965l-6.419-10.049c-2.926-4.58-5.47-9.335-7.623-14.246c-3.588-8.184-6.092-16.798-7.476-25.751
	l-1.416-9.158c3.317,1.295,6.765,2.258,10.291,2.863c12.811,2.198,25.943-0.37,36.986-7.233c1.779-1.105,3.507-2.327,5.135-3.63
	l38.287-30.633c20.965-16.775,26.088-46.622,11.917-69.428l-4.699-7.562l11.42-7.097c6.705-4.166,11.386-10.693,13.18-18.38
	c1.795-7.686,0.489-15.611-3.677-22.315l-14.034-22.583l93.173-57.9c8.2-5.096,10.727-15.915,5.631-24.118
	c-0.479-0.77-0.402-1.521-0.313-1.9c0.087-0.377,0.351-1.077,1.11-1.556l7.82-4.86c0.013-0.008,0.024-0.018,0.037-0.026l9.868-6.132
	c2.912-1.809,4.945-4.644,5.724-7.982C440.696,70.546,440.129,67.105,438.32,64.194z M379.091,22.864l11.466-7.125l5.005,8.055
	l-32.664,20.299L379.091,22.864z M90.594,251.282l3.541-2.2c1.872-1.164,4.085-1.529,6.23-1.027l6.681,1.56
	c6.12,1.428,12.434,0.389,17.775-2.929l7.756-4.82c-0.761,8.062-3.021,15.93-6.659,23.164L90.594,251.282z M215.944,421.581
	l6.419,10.048c2.975,4.656,3.939,10.187,2.717,15.574c-1.07,4.714-3.697,8.804-7.481,11.706c-0.541,0.415-1.105,0.805-1.691,1.169
	l-57.188,35.538c-2.313,1.437-5.124,1.775-7.713,0.924c-2.588-0.85-4.652-2.789-5.661-5.319l-17.211-43.12
	c-4.907-12.293-7.05-25.773-6.198-38.983l3.062-47.48c0.001-0.017,0.001-0.035,0.002-0.052c1.025-16.071-3.286-32.286-12.141-45.662
	c-0.093-0.141-0.183-0.28-0.275-0.42c-0.122-0.185-0.23-0.362-0.349-0.546l15.52,1.789c9.762,1.125,18.335,6.558,23.523,14.904
	c6.627,10.667,17.013,18.113,29.244,20.966l15.101,3.524l3.04,19.662c0.197,1.272,0.42,2.536,0.656,3.795
	C202.125,394.576,207.704,408.684,215.944,421.581z M318.166,208.854c2.052,3.302,2.695,7.205,1.811,10.991
	c-0.883,3.786-3.189,7.001-6.492,9.053l-17.788,11.054c-1.689,1.049-2.892,2.727-3.344,4.663c-0.452,1.936-0.116,3.973,0.933,5.662
	l8.657,13.93c10.166,16.36,6.491,37.772-8.549,49.805l-38.288,30.633c-1.168,0.934-2.405,1.81-3.68,2.602
	c-7.924,4.924-17.347,6.767-26.534,5.19c-6.545-1.123-12.717-3.966-17.851-8.221c-0.014-0.012-0.03-0.02-0.045-0.032
	c-0.19-0.155-0.397-0.289-0.603-0.426c-0.108-0.072-0.211-0.156-0.322-0.222c-0.193-0.114-0.4-0.204-0.604-0.301
	c-0.135-0.064-0.266-0.142-0.405-0.198c-0.158-0.064-0.328-0.105-0.492-0.158c-0.194-0.063-0.385-0.136-0.583-0.183
	c-0.01-0.002-0.019-0.007-0.029-0.009l-20.033-4.674c-8.329-1.943-15.402-7.014-19.916-14.278
	c-7.617-12.257-20.207-20.234-34.542-21.886l-14.222-1.639c7.974-5.829,14.613-12.969,19.773-20.964
	c0.229-0.269,0.444-0.553,0.636-0.86c9.464-15.05,13.656-33.072,11.805-50.747c-0.017-0.165-0.055-0.323-0.082-0.485
	c-0.875-7.999-2.97-15.965-6.399-23.62c-0.776-1.732-0.169-3.778,1.413-4.761l122.286-75.992L318.166,208.854z M408.568,80.136
	c-0.012,0.007-0.022,0.016-0.034,0.023l-53.211,33.066c-3.516,2.185-4.596,6.808-2.41,10.325c1.42,2.285,3.869,3.541,6.375,3.541
	c1.351,0,2.719-0.365,3.951-1.13l38.539-23.949c0.336,0.765,0.709,1.518,1.158,2.241c0.732,1.179,0.369,2.735-0.81,3.468
	l-93.172,57.899l-2.656-4.274l27.309-16.97c3.516-2.185,4.596-6.808,2.41-10.325c-2.186-3.518-6.809-4.595-10.325-2.411
	l-27.309,16.97l-20.968-33.741l58.747-36.507c0.015-0.009,0.03-0.018,0.044-0.028l67.269-41.803l20.967,33.74L408.568,80.136z"/>
<path d="M253.788,143.261c-0.06,0.036-0.122,0.064-0.182,0.1h0.001L253.788,143.261l-87.642,54.45
	c-5.651,3.511-7.392,10.966-3.88,16.618l37.048,59.62c1.702,2.738,4.367,4.649,7.506,5.382c0.919,0.215,1.845,0.321,2.766,0.321
	c2.225,0,4.41-0.619,6.346-1.822l87.462-54.351c0.349-0.217,0.683-0.45,1.004-0.697c0.058-0.045,0.11-0.096,0.168-0.142
	c0.261-0.208,0.517-0.421,0.757-0.648c0.017-0.016,0.032-0.034,0.049-0.051c1.678-1.602,2.862-3.654,3.403-5.967
	c0.628-2.688,0.32-5.446-0.849-7.903c-0.021-0.045-0.037-0.092-0.059-0.137c-0.179-0.365-0.376-0.723-0.593-1.072l-37.05-59.622
	c-1.537-2.472-3.828-4.195-6.392-5.057C260.595,141.093,256.927,141.384,253.788,143.261z M212.524,186.546l9.137-5.678
	l37.374-23.225l4.558,7.333l-46.511,28.903c-2.023,1.258-4.69,0.634-5.947-1.388C209.878,190.47,210.501,187.803,212.524,186.546z
	 M292.992,212.288l-46.512,28.903c-2.024,1.257-4.689,0.633-5.945-1.389s-0.634-4.689,1.389-5.946l46.51-28.903L292.992,212.288z
	 M271.507,177.712l9.014,14.506l-46.511,28.903c-9.045,5.621-11.831,17.552-6.21,26.596c0.784,1.261,1.696,2.393,2.701,3.405
	l-19.995,12.426l-33.958-54.645l20.002-12.429c0.463,1.349,1.067,2.671,1.851,3.933c3.653,5.88,9.973,9.114,16.434,9.114
	c3.477,0,6.996-0.938,10.162-2.904L271.507,177.712z"/>
<g>
</g>
<g>
</g>
<g>
</g>
<g>
</g>
<g>
</g>
<g>
</g>
<g>
</g>
<g>
</g>
<g>
</g>
<g>
</g>
<g>
</g>
<g>
</g>
<g>
</g>
<g>
</g>
<g>
</g>
</svg>
